<svg width="100" height="100" viewBox="0 0 100 100" fill="none" xmlns="http://www.w3.org/2000/svg">
    <g clip-path="url(#clip0_466_48)">
        <path d="M10 16.5C24.323 18.6951 24.9711 18.9819 38.9441 16.7499C39.7581 16.6198 40.5 17.2474 40.5 18.0718V70.3133C40.5 78.4245 33.9245 85 25.8133 85V85C17.8493 85 11.3404 78.6515 11.423 70.688C11.4394 69.1006 11.4653 67.4423 11.5038 65.7466C11.7328 55.642 20.17 48 30.2772 48H90"
              stroke="#6500A3" stroke-width="20" stroke-linecap="round"/>
        <path d="M54 23C56.1079 34.1797 63.4571 66.2819 65.7862 76.4039C65.9141 76.9598 66.7155 76.9027 66.7624 76.3343C67.5258 67.0734 69.7313 39.9523 70.3555 28.2554C70.386 27.6836 71.2273 27.5966 71.382 28.148C74.2123 38.2354 81.0397 62.4863 83.2768 70.4317C83.4269 70.9646 84.2012 70.8873 84.2537 70.3362L90 10"
              stroke="#6500A3" stroke-width="20" stroke-linecap="round"/>
        <path d="M10 16.5C24.323 18.6951 24.9711 18.9819 38.9441 16.7499C39.7581 16.6198 40.5 17.2474 40.5 18.0718V70.3133C40.5 78.4245 33.9245 85 25.8133 85V85C17.8493 85 11.3404 78.6515 11.423 70.688C11.4394 69.1006 11.4653 67.4423 11.5038 65.7466C11.7328 55.642 20.17 48 30.2772 48H90"
              stroke="#121212" stroke-width="7" stroke-linecap="round"/>
        <path d="M54 23C56.1079 34.1797 63.4571 66.2819 65.7862 76.4039C65.9141 76.9598 66.7155 76.9027 66.7624 76.3343C67.5258 67.0734 69.7313 39.9523 70.3555 28.2554C70.386 27.6836 71.2273 27.5966 71.382 28.148C74.2123 38.2354 81.0397 62.4863 83.2768 70.4317C83.4269 70.9646 84.2012 70.8873 84.2537 70.3362L90 10"
              stroke="#121212" stroke-width="7" stroke-linecap="round"/>
    </g>
    <defs>
        <clipPath id="clip0_466_48">
            <rect width="100" height="100" fill="white"/>
        </clipPath>
    </defs>
</svg>
