<svg width="100" height="100" viewBox="0 0 100 100" fill="none" xmlns="http://www.w3.org/2000/svg">
    <rect width="100" height="100" rx="27" fill="#111111"/>
    <path d="M15 25.2C26.6451 26.9573 27.1647 27.1858 38.5396 25.3964C39.19 25.294 39.7813 25.796 39.7813 26.4544V68.0647C39.7813 74.6564 34.4376 80 27.8459 80V80C21.3758 80 16.0866 74.8449 16.1581 68.3751C16.1715 67.1556 16.1921 65.8853 16.222 64.5877C16.4083 56.5057 23.16 50.4 31.2442 50.4H80"
          stroke="#6500A3" stroke-width="20" stroke-linecap="round"/>
    <path d="M55.75 30.4C57.4242 39.1429 63.1678 63.8803 65.1927 72.5513C65.3221 73.1054 66.1213 73.0455 66.1687 72.4785C66.8151 64.7416 68.4704 44.6261 69.0048 35.216C69.0372 34.6456 69.8797 34.5425 70.0364 35.092C72.3686 43.2736 77.5098 61.2547 79.405 67.8823C79.5568 68.4131 80.3256 68.3264 80.3787 67.7768L85 20"
          stroke="#6500A3" stroke-width="20" stroke-linecap="round"/>
    <path d="M15 25.2C26.6451 26.9573 27.1647 27.1858 38.5396 25.3964C39.19 25.294 39.7813 25.796 39.7813 26.4544V68.0647C39.7813 74.6564 34.4376 80 27.8459 80V80C21.3758 80 16.0866 74.8449 16.1581 68.3751C16.1715 67.1556 16.1921 65.8853 16.222 64.5877C16.4083 56.5057 23.16 50.4 31.2442 50.4H80"
          stroke="#AE00FF" stroke-width="7" stroke-linecap="round"/>
    <path d="M55.75 30.4C57.4242 39.1429 63.1678 63.8803 65.1927 72.5513C65.3221 73.1054 66.1213 73.0455 66.1687 72.4785C66.8151 64.7416 68.4704 44.6261 69.0048 35.216C69.0372 34.6456 69.8797 34.5425 70.0364 35.092C72.3686 43.2736 77.5098 61.2547 79.405 67.8823C79.5568 68.4131 80.3256 68.3264 80.3787 67.7768L85 20"
          stroke="#AE00FF" stroke-width="7" stroke-linecap="round"/>
</svg>
